<svg id="Layer_1" enable-background="new 0 0 512 512" height="512" viewBox="0 0 512 512" width="512" xmlns="http://www.w3.org/2000/svg"><g><g id="XMLID_258_"><g><g id="XMLID_1144_"><g id="XMLID_1252_"><g id="XMLID_1321_"><g id="XMLID_1464_"><g id="XMLID_1465_"><g id="XMLID_1466_"><g id="XMLID_1535_"><g id="XMLID_1536_"><g id="XMLID_1537_"><g id="XMLID_1538_"><g id="XMLID_1539_"><g id="XMLID_1540_"><g id="XMLID_1541_"><g id="XMLID_1542_"><circle cx="256" cy="256" fill="#3d5d72" r="256"/></g></g></g></g></g></g></g></g></g></g></g></g></g></g></g></g><path d="m100.285 358.214-3.368-29.964 50.128-31.545-76.726-76.199 4.968-11.418-16.72-16.564 19.53-19.62-7.922-7.923 15.209-14.815 4.892 4.892c1.182 1.182 4.388.727 4.405.72 1.541-.638 19.038-16.319 19.038-16.319l12.624 14.031c1.05.362 10.081-7.667 14.227-3.522l82.137 82.325.542-3.976 44.416 46.018 63.086-38.085-100.923-100.297c-4.285-4.128 2.506-7.662 6.714-11.869l-17.977-15.637 21.313-17.824-10.195-10.195 15.209-14.815 6.31 6.31s4.692 1.908 6.235 1.265l15.35-18.807 14.265 14.401s8.88-7.511 13.026-3.365l104.436 104.503 56.391-1.167 48.122 48.122c1.957 12.757 2.973 25.822 2.973 39.125 0 141.385-114.615 256-256 256-.151 0-.301-.005-.452-.006z" fill="#324a5e"/><g><g><path d="m346.484 171.121 22.286 33.606-113.173 66.291-32.349-42.701-146.809 91.735 23.846 38.162 111.93-69.94 31.643 41.771 149.822-87.757 20.524 30.949 46.701-104.483z" fill="#ff637b"/><g><g><g><path d="m407.22 364.77h-3.243c-1.667 0-3.169-1.005-3.807-2.545-.007-.017-.014-.034-.021-.051-.642-1.543-.293-3.319.889-4.501l2.473-2.473c4.146-4.146 4.146-10.867 0-15.012-4.146-4.146-10.867-4.146-15.012 0l-2.473 2.473c-1.182 1.182-2.958 1.531-4.501.889-.017-.007-.034-.014-.051-.021-1.54-.638-2.545-2.14-2.545-3.807v-3.498c0-5.863-4.753-10.615-10.615-10.615-5.863 0-10.615 4.753-10.615 10.615v3.498c0 1.667-1.004 3.169-2.545 3.807-.017.007-.034.014-.051.021-1.543.642-3.319.293-4.501-.889l-2.276-2.277c-4.207-4.207-11.223-4.337-15.351-.052-4.003 4.156-3.956 10.77.142 14.867l2.473 2.473c1.182 1.182 1.531 2.958.889 4.501-.007.017-.014.034-.021.051-.638 1.54-2.14 2.545-3.807 2.545h-3.243c-5.756 0-10.658 4.476-10.863 10.228-.217 6.04 4.615 11.003 10.606 11.003h3.498c1.667 0 3.169 1.005 3.807 2.545.007.017.014.034.021.051.642 1.543.293 3.32-.889 4.501l-2.277 2.277c-4.207 4.207-4.337 11.223-.052 15.351 4.156 4.003 10.77 3.955 14.867-.142l2.473-2.473c1.182-1.182 2.958-1.531 4.501-.889l.051.021c1.54.638 2.545 2.14 2.545 3.807v3.498c0 5.863 4.752 10.615 10.615 10.615 5.862 0 10.615-4.753 10.615-10.615v-3.498c0-1.667 1.004-3.169 2.545-3.807l.051-.021c1.543-.642 3.319-.293 4.501.889l2.473 2.473c4.146 4.146 10.867 4.146 15.012 0 4.146-4.146 4.146-10.867 0-15.012l-2.473-2.473c-1.182-1.182-1.531-2.958-.889-4.501.007-.017.014-.034.021-.051.638-1.54 2.14-2.545 3.807-2.545h3.498c5.991 0 10.823-4.963 10.608-11.002-.201-5.753-5.104-10.229-10.86-10.229z" fill="#be7bef"/></g></g><g><g><path d="m418.084 374.998c.215 6.041-4.621 11.005-10.609 11.005h-3.498c-1.67 0-3.171 1.001-3.806 2.543-.012.017-.018.035-.023.052-.64 1.542-.291 3.317.89 4.498l2.473 2.473c2.072 2.072 3.108 4.789 3.108 7.507 0 2.712-1.036 5.435-3.108 7.507-4.149 4.144-10.871 4.144-15.014 0l-2.473-2.473c-1.181-1.181-2.956-1.531-4.498-.89-.018.006-.035.012-.052.023-1.542.634-2.543 2.136-2.543 3.806v3.497c0 2.927-1.187 5.581-3.108 7.507-1.926 1.92-4.58 3.108-7.507 3.108v-99.554c5.86 0 10.615 4.755 10.615 10.615v3.497c0 1.67 1.001 3.172 2.543 3.806.017.012.035.017.052.023 1.542.64 3.317.291 4.498-.89l2.473-2.473c2.072-2.072 4.789-3.108 7.507-3.108s5.43 1.036 7.507 3.108c4.143 4.149 4.143 10.871 0 15.014l-2.473 2.473c-1.181 1.181-1.531 2.956-.89 4.499.006.017.012.035.023.052.634 1.542 2.136 2.543 3.806 2.543h3.242c5.756.002 10.661 4.483 10.865 10.232z" fill="#a158d8"/></g></g></g><g><g><g><path d="m303.788 89.998h-3.243c-1.667 0-3.169-1.004-3.807-2.545-.007-.017-.014-.034-.021-.051-.642-1.543-.293-3.319.889-4.501l2.473-2.473c4.146-4.146 4.146-10.867 0-15.012-4.146-4.145-10.867-4.145-15.012 0l-2.473 2.473c-1.182 1.182-2.958 1.531-4.501.889-.017-.007-.034-.014-.051-.021-1.54-.638-2.545-2.14-2.545-3.807v-3.498c0-5.863-4.753-10.615-10.615-10.615-5.863 0-10.615 4.752-10.615 10.615v3.498c0 1.667-1.005 3.169-2.545 3.807-.017.007-.034.014-.051.021-1.543.642-3.32.293-4.501-.889l-2.276-2.277c-4.207-4.207-11.223-4.337-15.351-.052-4.003 4.156-3.956 10.77.142 14.867l2.473 2.473c1.182 1.182 1.531 2.958.889 4.501-.007.017-.014.034-.021.051-.638 1.54-2.14 2.545-3.807 2.545h-3.243c-5.756 0-10.658 4.476-10.863 10.228-.215 6.039 4.617 11.002 10.608 11.002h3.498c1.667 0 3.169 1.004 3.807 2.545.007.017.014.034.021.051.642 1.543.293 3.319-.889 4.501l-2.277 2.277c-4.207 4.207-4.337 11.223-.052 15.351 4.156 4.003 10.77 3.955 14.867-.142l2.473-2.473c1.182-1.182 2.958-1.531 4.501-.889l.051.021c1.54.638 2.545 2.14 2.545 3.807v3.498c0 5.863 4.752 10.615 10.615 10.615 5.863 0 10.615-4.753 10.615-10.615v-3.498c0-1.667 1.004-3.169 2.545-3.807.017-.007.034-.014.051-.021 1.543-.642 3.319-.293 4.501.889l2.473 2.473c4.145 4.145 10.867 4.145 15.012 0 4.146-4.145 4.146-10.867 0-15.012l-2.473-2.473c-1.182-1.182-1.531-2.958-.889-4.502.007-.017.014-.034.021-.051.638-1.54 2.14-2.545 3.807-2.545h3.498c5.991 0 10.823-4.963 10.608-11.002-.204-5.751-5.106-10.227-10.862-10.227z" fill="#00efd1"/></g></g><g><g><path d="m314.652 100.226c.215 6.041-4.621 11.005-10.609 11.005h-3.497c-1.67 0-3.172 1.001-3.806 2.543-.012.017-.018.035-.023.052-.64 1.542-.291 3.317.89 4.498l2.473 2.473c2.072 2.072 3.108 4.789 3.108 7.507 0 2.712-1.036 5.435-3.108 7.507-4.149 4.143-10.871 4.143-15.014 0l-2.473-2.473c-1.181-1.181-2.956-1.531-4.498-.89-.018.006-.035.012-.052.023-1.542.634-2.543 2.136-2.543 3.806v3.497c0 2.927-1.187 5.581-3.108 7.507-1.926 1.921-4.58 3.108-7.507 3.108v-99.553c5.86 0 10.615 4.754 10.615 10.615v3.498c0 1.67 1.001 3.172 2.543 3.806.017.012.035.017.052.023 1.542.64 3.317.291 4.498-.89l2.473-2.473c2.072-2.072 4.789-3.108 7.507-3.108s5.429 1.036 7.507 3.108c4.144 4.149 4.144 10.871 0 15.014l-2.473 2.473c-1.181 1.181-1.53 2.956-.89 4.498.006.017.012.035.023.052.634 1.542 2.136 2.543 3.806 2.543h3.241c5.755 0 10.661 4.481 10.865 10.231z" fill="#00ceb4"/></g></g></g><g><g><g><path d="m144.279 174.551h-3.243c-1.667 0-3.169-1.005-3.807-2.545-.007-.017-.014-.034-.021-.051-.642-1.543-.293-3.319.889-4.501l2.473-2.473c4.145-4.146 4.145-10.867 0-15.012-4.146-4.146-10.867-4.146-15.012 0l-2.473 2.473c-1.182 1.182-2.958 1.531-4.501.889-.017-.007-.034-.014-.051-.021-1.54-.638-2.545-2.14-2.545-3.807v-3.498c0-5.863-4.753-10.615-10.615-10.615-5.863 0-10.615 4.753-10.615 10.615v3.498c0 1.667-1.005 3.169-2.545 3.807-.017.007-.034.014-.051.021-1.543.642-3.319.293-4.501-.889l-2.277-2.277c-4.207-4.207-11.223-4.337-15.351-.052-4.003 4.156-3.956 10.77.142 14.867l2.473 2.473c1.182 1.182 1.531 2.958.889 4.501-.007.017-.014.034-.021.051-.638 1.54-2.14 2.545-3.807 2.545h-3.243c-5.756 0-10.658 4.476-10.863 10.228-.215 6.039 4.617 11.002 10.608 11.002h3.498c1.667 0 3.169 1.005 3.807 2.545.007.017.014.034.021.051.642 1.543.293 3.319-.889 4.501l-2.277 2.277c-4.207 4.207-4.337 11.223-.052 15.351 4.156 4.003 10.77 3.955 14.867-.142l2.473-2.473c1.182-1.182 2.958-1.531 4.501-.889.017.007.034.014.051.021 1.54.638 2.545 2.14 2.545 3.807v3.498c0 5.863 4.752 10.615 10.615 10.615 5.863 0 10.615-4.753 10.615-10.615v-3.498c0-1.667 1.004-3.169 2.545-3.807l.051-.021c1.543-.643 3.32-.293 4.501.889l2.473 2.473c4.145 4.146 10.867 4.146 15.012 0 4.145-4.145 4.145-10.867 0-15.012l-2.473-2.473c-1.182-1.182-1.531-2.958-.889-4.501.007-.017.014-.034.021-.051.638-1.54 2.14-2.545 3.807-2.545h3.498c5.991 0 10.823-4.963 10.608-11.002-.203-5.752-5.105-10.228-10.861-10.228z" fill="#ffe670"/></g></g><g><g><path d="m155.142 184.78c.215 6.041-4.621 11.005-10.609 11.005h-3.497c-1.67 0-3.172 1.001-3.806 2.543-.012.017-.018.035-.023.052-.64 1.542-.291 3.317.89 4.498l2.473 2.473c2.072 2.072 3.108 4.789 3.108 7.507 0 2.712-1.036 5.435-3.108 7.507-4.149 4.143-10.871 4.143-15.014 0l-2.473-2.473c-1.181-1.181-2.956-1.531-4.498-.89-.018.006-.035.012-.052.023-1.542.634-2.543 2.136-2.543 3.806v3.497c0 2.927-1.187 5.581-3.108 7.507-1.926 1.92-4.58 3.108-7.507 3.108v-99.553c5.86 0 10.615 4.755 10.615 10.615v3.498c0 1.67 1.001 3.172 2.543 3.806.018.012.035.017.052.023 1.542.64 3.317.291 4.498-.89l2.473-2.473c2.072-2.072 4.789-3.108 7.507-3.108s5.43 1.036 7.507 3.108c4.144 4.149 4.144 10.871 0 15.014l-2.473 2.473c-1.181 1.181-1.53 2.956-.89 4.499.006.017.012.035.023.052.634 1.542 2.136 2.543 3.806 2.543h3.241c5.756-.001 10.662 4.48 10.865 10.23z" fill="#fdbb2c"/></g></g></g></g><path d="m460.91 168.75-46.71 104.49-20.52-30.95-128.8 75.44v-52.15l103.89-60.85-22.29-33.61z" fill="#f94367"/></g></g></svg>